# 3ds Max Wavefront OBJ Exporter v0.97b - (c)2007 guruware
# File Created: 06.02.2016 14:57:57

mtllib cube.mtl

#
# object Box001
#

v  0.4300 -0.5000 0.4300
v  -0.4300 -0.5000 0.4300
v  -0.4300 -0.5000 -0.4300
v  0.4300 -0.5000 -0.4300
v  -0.4300 0.5000 -0.4300
v  -0.4300 0.5000 0.4300
v  0.4300 0.5000 0.4300
v  0.4300 0.5000 -0.4300
v  -0.4300 0.4300 0.5000
v  -0.4300 -0.4300 0.5000
v  0.4300 -0.4300 0.5000
v  0.4300 0.4300 0.5000
v  0.5000 0.4300 0.4300
v  0.5000 -0.4300 0.4300
v  0.5000 -0.4300 -0.4300
v  0.5000 0.4300 -0.4300
v  0.4300 0.4300 -0.5000
v  0.4300 -0.4300 -0.5000
v  -0.4300 -0.4300 -0.5000
v  -0.4300 0.4300 -0.5000
v  -0.5000 0.4300 -0.4300
v  -0.5000 -0.4300 -0.4300
v  -0.5000 -0.4300 0.4300
v  -0.5000 0.4300 0.4300
# 24 vertices

vn 0.3416 -0.8756 0.3416
vn -0.3416 -0.8756 0.3416
vn -0.3416 -0.8756 -0.3416
vn 0.3416 -0.8756 -0.3416
vn -0.3416 0.8756 -0.3416
vn -0.3416 0.8756 0.3416
vn 0.3416 0.8756 0.3416
vn 0.3416 0.8756 -0.3416
vn -0.3416 0.3416 0.8756
vn -0.3416 -0.3416 0.8756
vn 0.3416 -0.3416 0.8756
vn 0.3416 0.3416 0.8756
vn 0.8756 0.3416 0.3416
vn 0.8756 -0.3416 0.3416
vn 0.8756 -0.3416 -0.3416
vn 0.8756 0.3416 -0.3416
vn 0.3416 0.3416 -0.8756
vn 0.3416 -0.3416 -0.8756
vn -0.3416 -0.3416 -0.8756
vn -0.3416 0.3416 -0.8756
vn -0.8756 0.3416 -0.3416
vn -0.8756 -0.3416 -0.3416
vn -0.8756 -0.3416 0.3416
vn -0.8756 0.3416 0.3416
# 24 vertex normals

vt 0.6200 0.9342 0.0000
vt 0.6188 0.7287 0.0000
vt 0.8243 0.7275 0.0000
vt 0.8255 0.9330 0.0000
vt 0.1558 0.7340 0.0000
vt 0.3613 0.7311 0.0000
vt 0.3640 0.9365 0.0000
vt 0.1587 0.9394 0.0000
vt 0.3880 0.7310 0.0000
vt 0.5923 0.7295 0.0000
vt 0.5939 0.9337 0.0000
vt 0.3897 0.9354 0.0000
vt 0.3909 0.0395 0.0000
vt 0.5946 0.0416 0.0000
vt 0.5924 0.2453 0.0000
vt 0.3887 0.2432 0.0000
vt 0.3885 0.2696 0.0000
vt 0.5922 0.2704 0.0000
vt 0.5915 0.4740 0.0000
vt 0.3877 0.4734 0.0000
vt 0.3875 0.4999 0.0000
vt 0.5917 0.4997 0.0000
vt 0.5920 0.7039 0.0000
vt 0.3876 0.7044 0.0000
vt 0.5980 0.7235 0.0000
vt 0.6067 0.7048 0.0000
vt 0.6148 0.9369 0.0000
vt 0.6096 0.9562 0.0000
vt 0.8281 0.7065 0.0000
vt 0.8479 0.7143 0.0000
vt 0.6132 0.2508 0.0000
vt 0.6032 0.2723 0.0000
vt 0.3819 0.7123 0.0000
vt 0.3712 0.7307 0.0000
vt 0.3609 0.7049 0.0000
vt 0.3851 0.9562 0.0000
vt 0.3643 0.9472 0.0000
vt 0.1368 0.7135 0.0000
vt 0.1554 0.7240 0.0000
vt 0.1295 0.7345 0.0000
vt 0.1380 0.9583 0.0000
vt 0.1487 0.9398 0.0000
vt 0.1590 0.9655 0.0000
vt 0.6190 0.7075 0.0000
vt 0.8248 0.7064 0.0000
vt 0.8455 0.7272 0.0000
vt 0.8466 0.9333 0.0000
vt 0.8260 0.9542 0.0000
vt 0.6202 0.9555 0.0000
vt 0.3644 0.9629 0.0000
vt 0.1323 0.9398 0.0000
vt 0.1554 0.7076 0.0000
vt 0.5944 0.9548 0.0000
vt 0.3886 0.9565 0.0000
# 54 texture coords

g Box001
usemtl _cubewire_008110135
s 1
f 1/1/1 2/2/2 3/3/3 4/4/4 
f 5/5/5 6/6/6 7/7/7 8/8/8 
f 9/9/9 10/10/10 11/11/11 12/12/12 
f 13/13/13 14/14/14 15/15/15 16/16/16 
f 17/17/17 18/18/18 19/19/19 20/20/20 
f 21/21/21 22/22/22 23/23/23 24/24/24 
f 10/25/10 23/26/23 2/2/2 
f 1/27/1 14/28/14 11/11/11 
f 22/29/22 19/30/19 3/3/3 
f 4/31/4 18/32/18 15/15/15 
f 9/33/9 6/34/6 24/35/24 
f 13/36/13 7/37/7 12/12/12 
f 21/38/21 5/39/5 20/40/20 
f 17/41/17 8/42/8 16/43/16 
f 3/3/3 2/2/2 23/44/23 22/45/22 
f 4/4/4 3/3/3 19/46/19 18/47/18 
f 1/1/1 4/4/4 15/48/15 14/49/14 
f 2/2/2 1/1/1 11/11/11 10/10/10 
f 7/7/7 6/6/6 9/9/9 12/12/12 
f 8/8/8 7/7/7 13/50/13 16/43/16 
f 5/5/5 8/8/8 17/51/17 20/40/20 
f 6/6/6 5/5/5 21/52/21 24/35/24 
f 12/12/12 11/11/11 14/53/14 13/54/13 
f 10/10/10 9/9/9 24/24/24 23/23/23 
f 16/16/16 15/15/15 18/18/18 17/17/17 
f 20/20/20 19/19/19 22/22/22 21/21/21 
# 18 polygons - 8 triangles

